<?xml version="1.0" encoding="UTF-8" standalone="no"?>
<svg
   xmlns:dc="http://purl.org/dc/elements/1.1/"
   xmlns:cc="http://creativecommons.org/ns#"
   xmlns:rdf="http://www.w3.org/1999/02/22-rdf-syntax-ns#"
   xmlns:svg="http://www.w3.org/2000/svg"
   xmlns="http://www.w3.org/2000/svg"
   id="svg1108"
   version="1.1"
   viewBox="0 0 54.117969 42.073159"
   height="42.073158mm"
   width="54.11797mm">
  <defs
     id="defs1102" />
  <metadata
     id="metadata1105">
    <rdf:RDF>
      <cc:Work
         rdf:about="">
        <dc:format>image/svg+xml</dc:format>
        <dc:type
           rdf:resource="http://purl.org/dc/dcmitype/StillImage" />
        <dc:title></dc:title>
      </cc:Work>
    </rdf:RDF>
  </metadata>
  <g
     transform="translate(0.88498348,-7.1229278)"
     id="layer1">
    <g
       style="font-style:normal;font-weight:normal;font-size:3.10616px;line-height:1.25;font-family:sans-serif;display:inline;fill:#1a1631;fill-opacity:1;stroke:none;stroke-width:0.0776542"
       id="text1569-8-4"
       aria-label="cargo-CREV">
      <g
         style="display:inline"
         transform="matrix(0.22334109,0,0,0.22334109,-24.657445,-235.97319)"
         id="g1620">
        <rect
           style="fill:#e8e8e8;fill-opacity:1;stroke:#e8e8e8;stroke-width:37.437;stroke-linecap:butt;stroke-linejoin:round;stroke-miterlimit:4;stroke-dasharray:none;stroke-opacity:1"
           id="rect2422"
           width="204.8192"
           height="150.94374"
           x="125.15866"
           y="1107.1708" />
        <rect
           style="fill:#e8e8e8;fill-opacity:1;stroke:none;stroke-width:9.07043;stroke-linecap:butt;stroke-linejoin:round;stroke-miterlimit:4;stroke-dasharray:none;stroke-opacity:1"
           id="rect2507"
           width="28.093931"
           height="19.420458"
           x="106.45781"
           y="1088.5292" />
        <rect
           y="1257.3634"
           x="320.65707"
           height="19.420458"
           width="28.093931"
           id="rect2507-4"
           style="display:inline;fill:#e8e8e8;fill-opacity:1;stroke:none;stroke-width:9.07043;stroke-linecap:butt;stroke-linejoin:round;stroke-miterlimit:4;stroke-dasharray:none;stroke-opacity:1" />
      </g>
      <path
         style="display:inline;fill:none;stroke:#3c3370;stroke-width:1.07156;stroke-linecap:butt;stroke-linejoin:miter;stroke-miterlimit:4;stroke-dasharray:none;stroke-opacity:1"
         d="m 23.540999,21.327396 c 0,0 0,0 3.630199,-3.23051 l 1.113325,-1.003776"
         id="path1650-2-6-1-6-7-8-7-1-3-8-93-6-6-8-5-6" />
      <path
         id="path2865-2-2-75-4-4-4-8-2-3"
         style="color:#000000;font-style:normal;font-variant:normal;font-weight:normal;font-stretch:normal;font-size:medium;line-height:normal;font-family:sans-serif;font-variant-ligatures:normal;font-variant-position:normal;font-variant-caps:normal;font-variant-numeric:normal;font-variant-alternates:normal;font-variant-east-asian:normal;font-feature-settings:normal;font-variation-settings:normal;text-indent:0;text-align:start;text-decoration:none;text-decoration-line:none;text-decoration-style:solid;text-decoration-color:#000000;letter-spacing:normal;word-spacing:normal;text-transform:none;writing-mode:lr-tb;direction:ltr;text-orientation:mixed;dominant-baseline:auto;baseline-shift:baseline;text-anchor:start;white-space:normal;shape-padding:0;shape-margin:0;inline-size:0;clip-rule:nonzero;display:inline;overflow:visible;visibility:visible;opacity:1;isolation:auto;mix-blend-mode:normal;color-interpolation:sRGB;color-interpolation-filters:linearRGB;solid-color:#000000;solid-opacity:1;vector-effect:none;fill:#3c3370;fill-opacity:1;fill-rule:nonzero;stroke:none;stroke-width:1.00385;stroke-linecap:square;stroke-linejoin:miter;stroke-miterlimit:4;stroke-dasharray:none;stroke-dashoffset:0;stroke-opacity:1;color-rendering:auto;image-rendering:auto;shape-rendering:auto;text-rendering:auto;enable-background:accumulate;stop-color:#000000;stop-opacity:1"
         d="m 26.261492,11.96186 -10.861613,4.280747 -0.02024,0.290592 c 0,0 -0.228576,3.338115 1.021434,7.517632 1.129089,3.775181 3.477467,8.275611 8.299289,11.659104 v -0.0066 h 0.924752 V 34.481436 H 24.69982 v 0.0026 c -4.163216,-3.164999 -6.242516,-7.217278 -7.278402,-10.680859 -1.124381,-3.759465 -1.001406,-6.54304 -0.981012,-6.93047 l 9.821058,-3.869981 1.99644,0.786554 v -1.039998 z" />
      <circle
         r="1.0807256"
         cx="22.63015"
         cy="22.117174"
         id="path1472-1-3-9-9-1"
         style="display:inline;fill:#ffffff;fill-opacity:0.00183722;stroke:#3c3370;stroke-width:1.16696;stroke-linejoin:round;stroke-miterlimit:4;stroke-dasharray:none;stroke-opacity:1" />
      <circle
         style="display:inline;fill:#ffffff;fill-opacity:0;stroke:#cda400;stroke-width:1.16696;stroke-linejoin:round;stroke-miterlimit:4;stroke-dasharray:none;stroke-opacity:1"
         id="path1472-8-7-3-7-0-7"
         cy="27.486227"
         cx="22.705009"
         r="1.0807256" />
      <circle
         style="display:inline;fill:#ffffff;fill-opacity:0.00183722;stroke:#3c3370;stroke-width:1.16696;stroke-linejoin:round;stroke-miterlimit:4;stroke-dasharray:none;stroke-opacity:1"
         id="path1472-2-9-3-7-2-5"
         cy="30.850363"
         cx="27.810505"
         r="1.0807256" />
      <path
         id="path2865-2-2-75-4-6-5-8-6-8-96"
         style="color:#000000;font-style:normal;font-variant:normal;font-weight:normal;font-stretch:normal;font-size:medium;line-height:normal;font-family:sans-serif;font-variant-ligatures:normal;font-variant-position:normal;font-variant-caps:normal;font-variant-numeric:normal;font-variant-alternates:normal;font-variant-east-asian:normal;font-feature-settings:normal;font-variation-settings:normal;text-indent:0;text-align:start;text-decoration:none;text-decoration-line:none;text-decoration-style:solid;text-decoration-color:#000000;letter-spacing:normal;word-spacing:normal;text-transform:none;writing-mode:lr-tb;direction:ltr;text-orientation:mixed;dominant-baseline:auto;baseline-shift:baseline;text-anchor:start;white-space:normal;shape-padding:0;shape-margin:0;inline-size:0;clip-rule:nonzero;display:inline;overflow:visible;visibility:visible;opacity:1;isolation:auto;mix-blend-mode:normal;color-interpolation:sRGB;color-interpolation-filters:linearRGB;solid-color:#000000;solid-opacity:1;vector-effect:none;fill:#cda400;fill-opacity:1;fill-rule:nonzero;stroke:none;stroke-width:0.105833;stroke-linecap:square;stroke-linejoin:miter;stroke-miterlimit:4;stroke-dasharray:none;stroke-dashoffset:0;stroke-opacity:1;color-rendering:auto;image-rendering:auto;shape-rendering:auto;text-rendering:auto;enable-background:accumulate;stop-color:#000000;stop-opacity:1"
         d="m 29.488022,13.233474 v 1.039442 l 6.581423,2.593472 c 0.0204,0.38743 0.143367,3.171005 -0.981014,6.930443 -1.035942,3.463767 -3.115323,7.516945 -7.278947,10.681918 v 1.226264 c 4.821815,-3.383492 7.170203,-7.884451 8.299286,-11.659632 1.250014,-4.179544 1.021432,-7.517659 1.021432,-7.517659 l -0.02021,-0.290592 z m -2.604929,21.248 v 1.221899 h 0.925296 v -1.221899 z" />
      <path
         id="path3223-21"
         d="m 30.005986,13.767139 0.02511,7.329646 -1.445516,1.352047 -4.795207,4.26728"
         style="display:inline;fill:none;stroke:#cda400;stroke-width:1.07156;stroke-linecap:butt;stroke-linejoin:miter;stroke-miterlimit:4;stroke-dasharray:none;stroke-opacity:1" />
      <rect
         transform="rotate(-49.345915)"
         y="35.755939"
         x="1.4506235"
         height="1.3117138"
         width="1.7413522"
         id="rect3225-7"
         style="display:inline;fill:#e8e8e8;fill-opacity:1;stroke:none;stroke-width:0.509085;stroke-linecap:butt;stroke-linejoin:round;stroke-miterlimit:4;stroke-dasharray:none;stroke-opacity:1" />
      <path
         id="path1650-6-9-3-3-3-9-7-9-2-6-7-9-8-5-8"
         d="m 29.000689,29.859362 2.985492,-2.59469 0.06444,-2.735395 -1.358881,-1.23182 -2.406169,-2.111005 0.04844,-7.904559 -0.0024,-1.723919"
         style="display:inline;fill:none;stroke:#3b3370;stroke-width:1.07149;stroke-linecap:butt;stroke-linejoin:miter;stroke-miterlimit:4;stroke-dasharray:none;stroke-opacity:1" />
      <path
         style="display:inline;fill:#e8e8e8;fill-opacity:1;stroke:none;stroke-width:3.589;stroke-linecap:square;stroke-linejoin:round;stroke-opacity:1"
         id="path2021-3-5"
         d="M 63.546122,591.93525 -27.09543,556.70893 48.732233,495.8242 Z"
         transform="matrix(0.07353704,0,0,0.07484837,27.819001,-29.889738)" />
      <g
         style="font-style:normal;font-weight:normal;font-size:3.10616px;line-height:1.25;font-family:sans-serif;display:inline;fill:#1a1631;fill-opacity:1;stroke:none;stroke-width:0.0776542"
         id="text1569-8-4-2"
         aria-label="cargo-CREV">
        <path
           id="path2428"
           style="font-style:normal;font-variant:normal;font-weight:normal;font-stretch:normal;font-size:3.10616px;font-family:'Good Times';-inkscape-font-specification:'Good Times, Normal';font-variant-ligatures:normal;font-variant-caps:normal;font-variant-numeric:normal;font-variant-east-asian:normal;fill:#1a1631;fill-opacity:1;stroke-width:0.0776542"
           d="m 13.703033,41.858955 z m 1.096475,0 q -0.236068,0 -0.437969,-0.08697 -0.198794,-0.09008 -0.34789,-0.242281 -0.145989,-0.155308 -0.229856,-0.366526 -0.08076,-0.211219 -0.08076,-0.456606 0,-0.248493 0.08076,-0.453499 0.08387,-0.205007 0.229856,-0.34789 0.149096,-0.14599 0.34789,-0.223644 0.201901,-0.08076 0.437969,-0.08076 h 1.223827 v 0.394482 h -1.223827 q -0.152202,0 -0.282661,0.05591 -0.127352,0.0528 -0.220537,0.149096 -0.09319,0.09629 -0.14599,0.229856 -0.0528,0.133565 -0.0528,0.295085 0,0.158414 0.0528,0.295085 0.0528,0.136671 0.14599,0.236068 0.09319,0.09629 0.220537,0.152202 0.130459,0.05591 0.282661,0.05591 h 1.223827 v 0.394482 z" />
        <path
           id="path2430"
           style="font-style:normal;font-variant:normal;font-weight:normal;font-stretch:normal;font-size:3.10616px;font-family:'Good Times';-inkscape-font-specification:'Good Times, Normal';font-variant-ligatures:normal;font-variant-caps:normal;font-variant-numeric:normal;font-variant-east-asian:normal;fill:#1a1631;fill-opacity:1;stroke-width:0.0776542"
           d="m 16.18835,41.858955 z m 2.506671,0 -0.338572,-0.568427 H 17.28793 l 0.18637,-0.319934 h 0.692673 l -0.503197,-0.844876 -1.025033,1.733237 H 16.18835 l 1.298374,-2.161887 q 0.03417,-0.05902 0.08076,-0.09318 0.04659,-0.03417 0.111821,-0.03417 0.06523,0 0.108716,0.03417 0.04659,0.03417 0.08076,0.09318 l 1.301481,2.161887 z" />
        <path
           id="path2432"
           style="font-style:normal;font-variant:normal;font-weight:normal;font-stretch:normal;font-size:3.10616px;font-family:'Good Times';-inkscape-font-specification:'Good Times, Normal';font-variant-ligatures:normal;font-variant-caps:normal;font-variant-numeric:normal;font-variant-east-asian:normal;fill:#1a1631;fill-opacity:1;stroke-width:0.0776542"
           d="m 19.410311,41.858955 z m 2.096658,0 -0.571533,-0.627444 H 20.09056 v -0.34789 h 0.941167 q 0.214325,0 0.32304,-0.114928 0.108716,-0.118034 0.108716,-0.338571 0,-0.220538 -0.114928,-0.326147 -0.111822,-0.108716 -0.316828,-0.108716 h -1.23004 v 1.863696 h -0.391376 v -2.258178 h 1.621416 q 0.192581,0 0.344783,0.05902 0.152202,0.05591 0.257812,0.164627 0.105609,0.105609 0.16152,0.257811 0.05591,0.152202 0.05591,0.341677 0,0.282661 -0.124247,0.475243 -0.12114,0.189476 -0.341677,0.273342 l 0.680249,0.686461 z" />
        <path
           id="path2434"
           style="font-style:normal;font-variant:normal;font-weight:normal;font-stretch:normal;font-size:3.10616px;font-family:'Good Times';-inkscape-font-specification:'Good Times, Normal';font-variant-ligatures:normal;font-variant-caps:normal;font-variant-numeric:normal;font-variant-east-asian:normal;fill:#1a1631;fill-opacity:1;stroke-width:0.0776542"
           d="m 22.153973,41.858955 z m 1.096474,0 q -0.236068,0 -0.437969,-0.08697 -0.198794,-0.09008 -0.347889,-0.242281 -0.14599,-0.155308 -0.229856,-0.366526 -0.08076,-0.211219 -0.08076,-0.456606 0,-0.248493 0.08076,-0.453499 0.08387,-0.205007 0.229856,-0.34789 0.149095,-0.14599 0.347889,-0.223644 0.201901,-0.08076 0.437969,-0.08076 h 1.223827 v 0.394482 h -1.223827 q -0.152202,0 -0.282661,0.05591 -0.127352,0.0528 -0.220537,0.149096 -0.09318,0.09629 -0.145989,0.229856 -0.0528,0.133565 -0.0528,0.295085 0,0.158414 0.0528,0.295085 0.0528,0.136671 0.145989,0.236068 0.09318,0.09629 0.220537,0.152202 0.130459,0.05591 0.282661,0.05591 h 0.966016 V 40.877409 H 23.197642 V 40.54505 h 1.416409 v 1.313905 z" />
        <path
           id="path2436"
           style="font-style:normal;font-variant:normal;font-weight:normal;font-stretch:normal;font-size:3.10616px;font-family:'Good Times';-inkscape-font-specification:'Good Times, Normal';font-variant-ligatures:normal;font-variant-caps:normal;font-variant-numeric:normal;font-variant-east-asian:normal;fill:#1a1631;fill-opacity:1;stroke-width:0.0776542"
           d="m 24.914329,41.858955 z m 1.096475,0 q -0.236068,0 -0.437969,-0.08697 -0.198794,-0.09008 -0.34789,-0.242281 -0.145989,-0.155308 -0.229855,-0.366526 -0.08076,-0.211219 -0.08076,-0.456606 0,-0.248493 0.08076,-0.453499 0.08387,-0.205007 0.229855,-0.34789 0.149096,-0.14599 0.34789,-0.223644 0.201901,-0.08076 0.437969,-0.08076 h 0.54979 q 0.245387,0 0.447287,0.08076 0.205007,0.08076 0.350996,0.22675 0.14599,0.145989 0.22675,0.350996 0.08076,0.2019 0.08076,0.447287 0,0.245387 -0.08387,0.456606 -0.08076,0.211218 -0.229856,0.366526 -0.14599,0.152202 -0.34789,0.242281 -0.2019,0.08697 -0.444181,0.08697 z m 0.54979,-0.394482 q 0.155308,0 0.285767,-0.05591 0.130459,-0.05591 0.223643,-0.152202 0.09629,-0.0994 0.149096,-0.236068 0.0528,-0.136671 0.0528,-0.295085 0,-0.158414 -0.0528,-0.291979 -0.0528,-0.136671 -0.149096,-0.232962 -0.09318,-0.09629 -0.223643,-0.149096 -0.130459,-0.05591 -0.285767,-0.05591 h -0.54979 q -0.152202,0 -0.282661,0.05591 -0.127352,0.0528 -0.220537,0.149096 -0.09318,0.09629 -0.14599,0.229856 -0.0528,0.133565 -0.0528,0.295085 0,0.158414 0.0528,0.295085 0.0528,0.136671 0.14599,0.236068 0.09319,0.09629 0.220537,0.152202 0.130459,0.05591 0.282661,0.05591 z" />
        <path
           id="path2438"
           style="font-style:normal;font-variant:normal;font-weight:normal;font-stretch:normal;font-size:3.10616px;font-family:'Good Times';-inkscape-font-specification:'Good Times, Normal';font-variant-ligatures:normal;font-variant-caps:normal;font-variant-numeric:normal;font-variant-east-asian:normal;fill:#1a1631;fill-opacity:1;stroke-width:0.0776542"
           d="m 27.883042,40.843241 v -0.264024 h 0.745478 v 0.264024 z" />
        <path
           id="path2440"
           style="font-style:normal;font-variant:normal;font-weight:normal;font-stretch:normal;font-size:3.10616px;font-family:'Good Times';-inkscape-font-specification:'Good Times, Normal';font-variant-ligatures:normal;font-variant-caps:normal;font-variant-numeric:normal;font-variant-east-asian:normal;fill:#1a1631;fill-opacity:1;stroke-width:0.0776542"
           d="m 29.942037,41.858955 q -0.236068,0 -0.437968,-0.08697 -0.198795,-0.09008 -0.34789,-0.242281 -0.14599,-0.155308 -0.229856,-0.366526 -0.08076,-0.211219 -0.08076,-0.456606 0,-0.248493 0.08076,-0.453499 0.08387,-0.205007 0.229856,-0.34789 0.149095,-0.14599 0.34789,-0.223644 0.2019,-0.08076 0.437968,-0.08076 h 1.223827 v 0.394482 h -1.223827 q -0.152202,0 -0.28266,0.05591 -0.127353,0.0528 -0.220538,0.149096 -0.09318,0.09629 -0.145989,0.229856 -0.05281,0.133565 -0.05281,0.295085 0,0.158414 0.05281,0.295085 0.0528,0.136671 0.145989,0.236068 0.09318,0.09629 0.220538,0.152202 0.130458,0.05591 0.28266,0.05591 h 1.223827 v 0.394482 z" />
        <path
           id="path2442"
           style="font-style:normal;font-variant:normal;font-weight:normal;font-stretch:normal;font-size:3.10616px;font-family:'Good Times';-inkscape-font-specification:'Good Times, Normal';font-variant-ligatures:normal;font-variant-caps:normal;font-variant-numeric:normal;font-variant-east-asian:normal;fill:#1a1631;fill-opacity:1;stroke-width:0.0776542"
           d="m 33.57974,41.858955 -0.571534,-0.627444 h -0.844875 v -0.34789 h 0.941166 q 0.214325,0 0.323041,-0.114928 0.108715,-0.118034 0.108715,-0.338571 0,-0.220538 -0.114928,-0.326147 -0.111821,-0.108716 -0.316828,-0.108716 h -1.230039 v 1.863696 h -0.391376 v -2.258178 h 1.621415 q 0.192582,0 0.344784,0.05902 0.152202,0.05591 0.257811,0.164627 0.10561,0.105609 0.16152,0.257811 0.05591,0.152202 0.05591,0.341677 0,0.282661 -0.124246,0.475243 -0.12114,0.189476 -0.341678,0.273342 l 0.680249,0.686461 z" />
        <path
           id="path2444"
           style="font-style:normal;font-variant:normal;font-weight:normal;font-stretch:normal;font-size:3.10616px;font-family:'Good Times';-inkscape-font-specification:'Good Times, Normal';font-variant-ligatures:normal;font-variant-caps:normal;font-variant-numeric:normal;font-variant-east-asian:normal;fill:#1a1631;fill-opacity:1;stroke-width:0.0776542"
           d="m 34.346573,41.858955 v -2.258178 h 2.015897 v 0.394482 h -1.624521 v 1.469214 h 1.627628 v 0.394482 z m 0.680249,-0.981546 V 40.54505 h 1.251782 v 0.332359 z" />
        <path
           id="path2446"
           style="font-style:normal;font-variant:normal;font-weight:normal;font-stretch:normal;font-size:3.10616px;font-family:'Good Times';-inkscape-font-specification:'Good Times, Normal';font-variant-ligatures:normal;font-variant-caps:normal;font-variant-numeric:normal;font-variant-east-asian:normal;fill:#1a1631;fill-opacity:1;stroke-width:0.0776542"
           d="m 36.554324,39.600777 h 0.481455 l 1.025032,1.73945 1.021927,-1.73945 h 0.453499 l -1.301481,2.161887 q -0.03417,0.05902 -0.08076,0.09318 -0.04659,0.03417 -0.108715,0.03417 -0.06523,0 -0.111822,-0.03417 -0.04659,-0.03417 -0.08076,-0.09318 z" />
      </g>
    </g>
  </g>
</svg>
